<svg width="35" height="41.543" fill="none" xmlns="http://www.w3.org/2000/svg"><path d="M35 30.45c-.25.67-.49 1.31-.73 1.92-.63 1.44-1.37 2.78-2.23 4.03-1.18 1.68-2.14 2.84-2.89 3.47-1.13 1.05-2.38 1.6-3.69 1.62-.94 0-2.08-.26-3.41-.81-1.34-.54-2.56-.81-3.68-.81-1.18 0-2.43.27-3.78.81-1.36.55-2.43.83-3.26.86-1.27.04-2.52-.51-3.79-1.67-.81-.7-1.81-1.9-3.02-3.61-1.29-1.81-2.36-3.91-3.19-6.32C.43 27.34 0 24.82 0 22.4c0-2.78.61-5.19 1.81-7.2.94-1.62 2.21-2.89 3.79-3.83 1.57-.94 3.28-1.42 5.11-1.44 1.01 0 2.32.3 3.96.92 1.64.61 2.69.91 3.15.91.35 0 1.51-.37 3.48-1.09 1.86-.68 3.44-.94 4.73-.83 3.5.28 6.12 1.66 7.87 4.13-3.13 1.91-4.68 4.55-4.64 7.97.03 2.64.99 4.85 2.89 6.6A8.87 8.87 0 0 0 35 30.45ZM26.2 0c.02.28.05.54.05.83 0 2.07-.77 4.02-2.28 5.82-1.84 2.14-4.05 3.36-6.43 3.17-.02-.24-.04-.51-.04-.79 0-1.99.87-4.13 2.4-5.88.77-.88 1.75-1.62 2.93-2.21C24.04.37 25.15.04 26.2 0Z" fill="#333"/></svg>